<svg xmlns="http://www.w3.org/2000/svg" viewBox="0 0 76.42 80.28"><defs><style>.cls-1{fill:#fff;stroke:#fff;stroke-miterlimit:10;}</style></defs><g id="Layer_2" data-name="Layer 2"><g id="ic-hands-gestures-swipe-left-right"><path class="cls-1" d="M73.48,33.18a5.59,5.59,0,0,0-3-.89,5.7,5.7,0,0,0-5.7,5.7V32.17a5.7,5.7,0,1,0-11.39,0V27.06a5.7,5.7,0,0,0-11.4,0V6.2a5.7,5.7,0,1,0-11.4,0V44.89h-.05L19.8,34.21A5.7,5.7,0,0,0,11,41.5L29.92,70.18a21.34,21.34,0,0,0,38.32-5.82l7.45-24.84A5.64,5.64,0,0,0,73.48,33.18Z"/><line class="cls-1" x1="41.94" y1="27.06" x2="41.94" y2="34.68"/><line class="cls-1" x1="53.34" y1="32.17" x2="53.34" y2="39.06"/><line class="cls-1" x1="64.73" y1="37.99" x2="64.73" y2="42.82"/><path class="cls-1" d="M49.4,9.56H72"/><path class="cls-1" d="M65,2.48,72,9.56,65,16.63"/><path class="cls-1" d="M23.35,9.56H.71"/><path class="cls-1" d="M7.78,16.63.71,9.56,7.78,2.48"/></g></g></svg>