<svg xmlns="http://www.w3.org/2000/svg" viewBox="0 0 24.83 26.12"><defs><style>.cls-1{fill:none;stroke:#f2f2f2;stroke-linecap:round;stroke-linejoin:round;}</style></defs><g id="Layer_2" data-name="Layer 2"><g id="ic-hands-gestures-swipe-left-right"><path class="cls-1" d="M23.56,10.85a1.87,1.87,0,0,0-1-.28,1.81,1.81,0,0,0-1.8,1.81V10.53a1.81,1.81,0,0,0-3.61,0V8.92a1.81,1.81,0,1,0-3.61,0V2.31a1.81,1.81,0,0,0-3.62,0V14.57h0L6.55,11.18a1.81,1.81,0,0,0-2.78,2.31l6,9.09A6.76,6.76,0,0,0,21.9,20.73l2.36-7.87A1.78,1.78,0,0,0,23.56,10.85Z"/><line class="cls-1" x1="13.57" y1="8.92" x2="13.57" y2="11.33"/><line class="cls-1" x1="17.18" y1="10.53" x2="17.18" y2="12.72"/><line class="cls-1" x1="20.79" y1="12.38" x2="20.79" y2="13.91"/><path class="cls-1" d="M15.93,3.37H23.1"/><path class="cls-1" d="M20.86,1.13,23.1,3.37,20.86,5.61"/><path class="cls-1" d="M7.67,3.37H.5"/><path class="cls-1" d="M2.74,5.61.5,3.37,2.74,1.13"/></g></g></svg>