<svg xmlns="http://www.w3.org/2000/svg" xmlns:xlink="http://www.w3.org/1999/xlink" viewBox="0 0 24.83 26.12"><defs><style>.cls-1,.cls-2,.cls-3,.cls-4,.cls-5,.cls-6{stroke:#f2f2f2;stroke-linecap:round;stroke-linejoin:round;}.cls-1{fill:url(#linear-gradient);}.cls-2{fill:url(#Orchidej);}.cls-3{fill:url(#Orchidej-2);}.cls-4{fill:url(#Orchidej-3);}.cls-5{fill:url(#Orchidej-4);}.cls-6{fill:none;}</style><linearGradient id="linear-gradient" x1="3.36" y1="13.06" x2="24.33" y2="13.06" gradientUnits="userSpaceOnUse"><stop offset="0" stop-color="#71b2cc"/><stop offset="0.14" stop-color="#70abcb"/><stop offset="0.35" stop-color="#6b96c9"/><stop offset="0.6" stop-color="#6575c5"/><stop offset="0.88" stop-color="#5b47c0"/><stop offset="1" stop-color="#5731be"/></linearGradient><linearGradient id="Orchidej" x1="13.57" y1="10.12" x2="13.57" y2="10.12" gradientUnits="userSpaceOnUse"><stop offset="0" stop-color="#ff7bac"/><stop offset="0.22" stop-color="#ff7bac" stop-opacity="0.76"/><stop offset="0.6" stop-color="#ff7bac" stop-opacity="0.36"/><stop offset="0.87" stop-color="#ff7bac" stop-opacity="0.1"/><stop offset="1" stop-color="#ff7bac" stop-opacity="0"/></linearGradient><linearGradient id="Orchidej-2" x1="17.18" y1="11.63" x2="17.18" y2="11.63" xlink:href="#Orchidej"/><linearGradient id="Orchidej-3" x1="20.79" y1="13.14" x2="20.79" y2="13.14" xlink:href="#Orchidej"/><linearGradient id="Orchidej-4" x1="15.93" y1="3.37" x2="23.1" y2="3.37" xlink:href="#Orchidej"/></defs><g id="Layer_2" data-name="Layer 2"><g id="ic-hands-gestures-swipe-left-right"><path class="cls-1" d="M23.56,10.85a1.87,1.87,0,0,0-1-.28,1.81,1.81,0,0,0-1.8,1.81V10.67a1.9,1.9,0,0,0-1.55-1.92,1.8,1.8,0,0,0-2.06,1.78V9.06a1.9,1.9,0,0,0-1.55-1.93,1.79,1.79,0,0,0-2,1.19.05.05,0,0,1-.1,0V2.44A1.9,1.9,0,0,0,12,.52,1.81,1.81,0,0,0,10,2.31V14.57h0L6.55,11.18a1.81,1.81,0,0,0-2.78,2.31l5.86,8.89a7,7,0,0,0,4.44,3.11,6.77,6.77,0,0,0,7.83-4.76l2.36-7.87A1.78,1.78,0,0,0,23.56,10.85Z"/><line class="cls-2" x1="13.57" y1="8.92" x2="13.57" y2="11.33"/><line class="cls-3" x1="17.18" y1="10.53" x2="17.18" y2="12.72"/><line class="cls-4" x1="20.79" y1="12.38" x2="20.79" y2="13.91"/><path class="cls-5" d="M15.93,3.37H23.1"/><path class="cls-6" d="M20.86,1.13l2.2,2.2a0,0,0,0,1,0,.08l-2.2,2.2"/><path class="cls-6" d="M7.67,3.37H.5"/><path class="cls-6" d="M2.74,5.61.54,3.41a.06.06,0,0,1,0-.08l2.2-2.2"/></g></g></svg>