<svg xmlns="http://www.w3.org/2000/svg" viewBox="0 0 40.07 41.96"><defs><style>.cls-1{stroke:#fff;stroke-miterlimit:10;}</style></defs><g id="Layer_2" data-name="Layer 2"><g id="ic-hands-gestures-swipe-left-right"><path class="cls-1" d="M38.31,17.38a3,3,0,0,0-4.52,2.49v-3a2.95,2.95,0,0,0-5.89,0V14.22a2.95,2.95,0,0,0-5.89,0V3.44a2.95,2.95,0,0,0-5.89,0v20h0l-5.53-5.52A2.94,2.94,0,0,0,6,21.68L15.8,36.5a11,11,0,0,0,19.8-3l3.85-12.84A2.92,2.92,0,0,0,38.31,17.38Z"/><line class="cls-1" x1="22.01" y1="14.22" x2="22.01" y2="18.16"/><line class="cls-1" x1="27.9" y1="16.86" x2="27.9" y2="20.43"/><line class="cls-1" x1="33.79" y1="19.87" x2="33.79" y2="22.37"/><path class="cls-1" d="M25.87,5.18H37.56"/><path class="cls-1" d="M33.91,1.52l3.65,3.66L33.91,8.83"/><path class="cls-1" d="M12.4,5.18H.71"/><path class="cls-1" d="M4.36,8.83.71,5.18,4.36,1.52"/></g></g></svg>